# xmcd
#
# Track frame offsets: 
#        150
#        12912
#        26320
#        39087
#        51880
#        64262
#        77553
#        89684
#        102186
#        114206
#        127756
#        139550
#        151960
#        164384
#        177252
#        190844
#        202760
#        215405
#        227880
#        240581
#        252808
#        265491
#        278452
#        292205
#        305063
#        318727
#
# Disc length: 4419 seconds
#
# Revision: 0
# Processed by: cddbd v1.5.2PL0 Copyright (c) Steve Scherf et al.
# Submitted via: ExactAudioCopy v1.3
#
DISCID=6111411a
DTITLE=Homer and Jethro - Take Off Your Gloves And Play - Early Recording
DTITLE=s 1946-48
DYEAR=2018
DGENRE=Country
TTITLE0=Glow Worm
TTITLE1=Boll Weevil
TTITLE2=Always
TTITLE3=Ground Hog
TTITLE4=Night And Day
TTITLE5=Symphony
TTITLE6=It's A Bloody War
TTITLE7=Managua, Nicaragua
TTITLE8=Three Nights Experience
TTITLE9=(I Love You) For Sentimental Reasons
TTITLE10=I Wonder Who's Kissing Her Now?
TTITLE11=Margie
TTITLE12=All Night Long
TTITLE13=Cielito Lindo
TTITLE14=I'll Close My Eyes
TTITLE15=It Bruised Her Somewhat
TTITLE16=Donkey Serenade
TTITLE17=Blue Tail Fly
TTITLE18=Rye Whiskey
TTITLE19=Fly Birdie Fly
TTITLE20=I'm Glad I Waited For You
TTITLE21=When It's Long Handle Time In Tennesee
TTITLE22=I Feel That Old Age Creeping On
TTITLE23=Goodbye Old Booze
TTITLE24=(Don't Telephone, Don't Telegraph) Tell A Woman
TTITLE25=Over The Rainbow
EXTD=
EXTT0=
EXTT1=
EXTT2=
EXTT3=
EXTT4=
EXTT5=
EXTT6=
EXTT7=
EXTT8=
EXTT9=
EXTT10=
EXTT11=
EXTT12=
EXTT13=
EXTT14=
EXTT15=
EXTT16=
EXTT17=
EXTT18=
EXTT19=
EXTT20=
EXTT21=
EXTT22=
EXTT23=
EXTT24=
EXTT25=
PLAYORDER=
